<svg width="51" height="51" viewBox="0 0 51 51" fill="none" xmlns="http://www.w3.org/2000/svg">
<circle cx="25.5" cy="25.5" r="24.5" fill="white" stroke="#ABABAB" stroke-width="2"/>
<path d="M23.1432 30.8409V30.6918C23.1597 29.1091 23.3254 27.8497 23.6403 26.9134C23.9552 25.977 24.4026 25.2189 24.9826 24.6388C25.5627 24.0588 26.2587 23.5244 27.0707 23.0355C27.5596 22.7372 27.9987 22.3851 28.3882 21.979C28.7776 21.5647 29.0842 21.0883 29.3079 20.5497C29.5399 20.0111 29.6559 19.4145 29.6559 18.7599C29.6559 17.9479 29.4654 17.2436 29.0842 16.647C28.7031 16.0504 28.1935 15.5906 27.5554 15.2674C26.9174 14.9442 26.209 14.7827 25.4301 14.7827C24.7506 14.7827 24.096 14.9235 23.4663 15.2053C22.8366 15.487 22.3104 15.9303 21.8878 16.5352C21.4652 17.14 21.2208 17.9313 21.1545 18.9091H18.0224C18.0887 17.5005 18.4533 16.2949 19.1162 15.2923C19.7873 14.2897 20.6698 13.5232 21.7635 12.9929C22.8656 12.4626 24.0878 12.1974 25.4301 12.1974C26.8884 12.1974 28.1562 12.4875 29.2334 13.0675C30.3188 13.6475 31.1557 14.4429 31.744 15.4538C32.3406 16.4647 32.6389 17.6165 32.6389 18.9091C32.6389 19.8205 32.498 20.645 32.2163 21.3825C31.9429 22.1199 31.5451 22.7786 31.0231 23.3587C30.5094 23.9387 29.8879 24.4524 29.1588 24.8999C28.4296 25.3556 27.8455 25.8362 27.4063 26.3416C26.9671 26.8388 26.6481 27.4312 26.4493 28.119C26.2504 28.8067 26.1427 29.6643 26.1261 30.6918V30.8409H23.1432ZM24.7341 38.1989C24.1209 38.1989 23.5947 37.9793 23.1556 37.5401C22.7164 37.101 22.4968 36.5748 22.4968 35.9616C22.4968 35.3485 22.7164 34.8223 23.1556 34.3832C23.5947 33.944 24.1209 33.7244 24.7341 33.7244C25.3472 33.7244 25.8734 33.944 26.3125 34.3832C26.7517 34.8223 26.9713 35.3485 26.9713 35.9616C26.9713 36.3677 26.8677 36.7405 26.6606 37.0803C26.4617 37.42 26.1924 37.6934 25.8527 37.9006C25.5212 38.0994 25.1484 38.1989 24.7341 38.1989Z" fill="#ABABAB"/>
</svg>
