<?xml version="1.0" encoding="UTF-8"?>
<svg width="700pt" height="700pt" version="1.1" viewBox="0 0 700 700" xmlns="http://www.w3.org/2000/svg">
 <g>
  <path d="m328.18 357.91-70.824-69.512c-5.5117-5.4258-5.6016-14.281-0.17578-19.809l14.699-14.961c5.4258-5.5117 14.281-5.6016 19.793-0.19141l46.184 45.309 99.383-99.418c5.4609-5.4766 14.332-5.4766 19.793 0l14.859 14.875c5.4766 5.4766 5.4766 14.316 0 19.793l-123.83 123.83c-5.4609 5.4766-14.367 5.5117-19.883 0.085937z"/>
  <path d="m350 525c-3.7969 0-7.6133-1.1211-10.887-3.3945-178.83-123.8-193.06-244.28-193.06-388.94 0-9.1719 6.5117-17.062 15.523-18.762 97.09-18.551 176.49-74.762 177.27-75.336 6.6484-4.7617 15.609-4.7617 22.262 0 0.78906 0.55859 80.184 56.789 177.27 75.336 9.0117 1.7148 15.523 9.5898 15.523 18.762 0 144.66-14.227 265.14-193.06 388.94-3.2383 2.2734-7.0547 3.3945-10.852 3.3945zm-165.66-376.83c1.0156 130.95 17.449 227.82 165.66 334.34 148.21-106.52 164.64-203.39 165.66-334.34-77.543-17.887-140.88-55.055-165.66-71.051-24.797 15.992-88.129 53.145-165.66 71.047z"/>
 </g>
</svg>
